# xmcd CD database file
#
# Track frame offsets:
#	150
#	13190
#	22888
#	33894
#	53695
#	69689
#	82527
#	96145
#	110549
#
# Disc length: 1671 seconds
#
# Revision: 0
# Processed by: cddbd v1.5.2PL0 Copyright (c) Steve Scherf et al.
# Submitted via: CDex 1.51
#
DISCID=5f068509
DTITLE=OutdoorProtestant Blues Band - Knee Deep in Dirt
DYEAR=2013
DGENRE=Blues
TTITLE0=won´t be me
TTITLE1=pickme up
TTITLE2=knee deep in dirt
TTITLE3=no religion
TTITLE4=oh no
TTITLE5=before i get carried away
TTITLE6=drinkin man
TTITLE7=waiting onthe landlord
TTITLE8=lyin on the floor
EXTD=YEAR: 2013
EXTT0=
EXTT1=
EXTT2=
EXTT3=
EXTT4=
EXTT5=
EXTT6=
EXTT7=
EXTT8=
PLAYORDER=
